<svg id="Capa_1" enable-background="new 0 0 512 512" height="512" viewBox="0 0 512 512" width="512" xmlns="http://www.w3.org/2000/svg"><g><g><g><g><g><g><g><g><g><circle cx="256" cy="256" fill="#a3d4ff" r="256"/></g></g></g></g></g></g></g></g><path d="m512 256c0-13.261-1.008-26.287-2.953-39.004l-71.75-71.75-11.982 31.87-80.87-80.87-253.12 268.49 146.639 146.639c5.959.414 11.973.625 18.036.625 141.385 0 256-114.615 256-256z" fill="#65b1fc"/><g><path d="m365.14 145.245h-147.069l15.354-40.755c3.39-8.998 12-14.955 21.615-14.955h73.131c9.615 0 18.225 5.957 21.615 14.955z" fill="#555a66"/></g><g><path d="m349.786 104.49c-3.39-8.998-12-14.955-21.615-14.955h-72.051v55.71h109.02z" fill="#333940"/></g><g><path d="m407.369 378.297h-278.774c-24.617 0-44.573-19.956-44.573-44.573v-155.448c0-24.617 19.956-44.573 44.573-44.573h278.774c24.617 0 44.573 19.956 44.573 44.573v155.449c0 24.616-19.956 44.572-44.573 44.572z" fill="#707789"/></g><g><path d="m407.369 133.703h-151.249v244.595h151.248c24.617 0 44.573-19.956 44.573-44.573v-155.449c.001-24.617-19.955-44.573-44.572-44.573z" fill="#636978"/></g><g><path d="m167.226 378.297h-48.281c-19.287 0-34.922-15.635-34.922-34.922v-174.75c0-19.287 15.635-34.922 34.922-34.922h48.281c19.287 0 34.922 15.635 34.922 34.922v174.751c0 19.286-15.635 34.921-34.922 34.921z" fill="#555a66"/></g><g><circle cx="339.671" cy="256" fill="#555a66" r="100.612"/></g><g><path d="m339.671 155.388c-.14 0-.278.005-.418.005v201.213c.14.001.278.005.418.005 55.566 0 100.612-45.045 100.612-100.612s-45.046-100.611-100.612-100.611z" fill="#333940"/></g><g><circle cx="339.671" cy="256" fill="#7584f2" r="63.5"/></g><g><path d="m339.671 192.5c-.14 0-.278.01-.418.01v126.98c.14.001.278.011.418.011 35.07 0 63.5-28.43 63.5-63.5s-28.43-63.501-63.5-63.501z" fill="#606aea"/></g><g><circle cx="316.819" cy="228.429" fill="#fff" r="17.958"/></g></g></svg>