<svg id="Capa_1" enable-background="new 0 0 512 512" height="512" viewBox="0 0 512 512" width="512" xmlns="http://www.w3.org/2000/svg"><g><path d="m256 0-63.734 128 63.734 128 135.577-45.443 45.443-135.577c-46.328-46.326-110.327-74.98-181.02-74.98z" fill="#ffe278"/><path d="m256 0c-65.516 0-131.032 24.994-181.019 74.981l45.443 135.577 135.576 45.442z" fill="#b0d16f"/><path d="m74.981 74.981c-46.327 46.327-74.981 110.327-74.981 181.019l128 63.734 128-63.734z" fill="#45c5ff"/><path d="m0 256c0 65.516 24.994 131.032 74.981 181.019l135.577-45.443 45.442-135.576z" fill="#0ca8ed"/><path d="m74.981 437.019c46.327 46.327 110.327 74.981 181.019 74.981l63.734-128-63.734-128z" fill="#1365c2"/><path d="m256 512c65.516 0 131.032-24.993 181.019-74.981l-45.443-135.577-135.576-45.442z" fill="#f71e78"/><path d="m437.019 437.019c46.327-46.327 74.981-110.326 74.981-181.019l-128-63.734-128 63.734z" fill="#ff776b"/><path d="m437.019 74.981-181.019 181.019h256c0-65.516-24.994-131.032-74.981-181.019z" fill="#ffb54c"/></g></svg>