<svg id="Capa_1" enable-background="new 0 0 512 512" height="512" viewBox="0 0 512 512" width="512" xmlns="http://www.w3.org/2000/svg"><g><g><g><g><g><g><g><g><g><circle cx="256" cy="256" fill="#fe6a16" r="256"/></g></g></g></g></g></g></g></g><path d="m511.133 277.225-225.122-225.122-176.656 349.248 107.707 107.707c12.696 1.937 25.7 2.942 38.938 2.942 134.238 0 244.344-103.32 255.133-234.775z" fill="#ea4006"/><g><path d="m225.989 52.103h60.022v71.674h-60.022z" fill="#ffde55"/></g><g><path d="m256.121 52.103h29.89v71.674h-29.89z" fill="#ffce00"/></g><g><path d="m381.104 370.651h-250.208v-164.199c0-69.093 56.011-125.104 125.104-125.104 69.093 0 125.104 56.011 125.104 125.104z" fill="#ffce00"/></g><g><path d="m381.104 206.452c0-69.053-55.946-125.037-124.983-125.102v289.301h124.983z" fill="#fdba12"/></g><g><circle cx="256" cy="403.957" fill="#ffce00" r="44.308"/></g><g><path d="m300.308 403.957c0-24.43-19.772-44.239-44.187-44.304v88.609c24.414-.065 44.187-19.875 44.187-44.305z" fill="#fdba12"/></g><g><path d="m109.355 328.374h293.29v72.977h-293.29z" fill="#ffde55"/></g><g><path d="m256.121 328.374h146.524v72.977h-146.524z" fill="#ffce00"/></g></g></svg>