<svg id="Capa_1" enable-background="new 0 0 512 512" height="512" viewBox="0 0 512 512" width="512" xmlns="http://www.w3.org/2000/svg"><g><g><g><g><g><g><g><g><g><circle cx="256" cy="256" fill="#a3d4ff" r="256"/></g></g></g></g></g></g></g></g><g fill="#65b1fc"><path d="m182.047 321.448-62.894 69.352 120.698 120.698c5.34.333 10.725.502 16.149.502 34.489 0 67.385-6.82 97.413-19.186l-167.154-167.759z"/><path d="m508.059 300.992-147.814-148.784-131.786-51.738-86.084 14.493 90.659 90.659-90.659 27.154 243.739 243.739c63.031-37.271 108.696-100.796 121.945-175.523z"/></g><g><circle cx="153.603" cy="358.85" fill="#fe6a16" r="46.995"/></g><g><path d="m186.194 324.993-66.448 66.43c8.55 8.885 20.553 14.422 33.857 14.422 25.954 0 46.995-21.04 46.995-46.995 0-13.304-5.519-25.307-14.404-33.857z" fill="#f24500"/></g><g><path d="m332.678 370.079h-53c0-75.709-61.594-137.303-137.303-137.303v-53c104.933 0 190.303 85.37 190.303 190.303z" fill="#fe6a16"/></g><g><path d="m276.226 234.943-37.459 37.459c25.24 24.911 40.911 59.497 40.911 97.677h53c0-52.793-21.615-100.628-56.452-135.136z" fill="#f24500"/></g><g><path d="m450.49 370.079h-53c0-68.144-26.536-132.209-74.722-180.394-48.185-48.185-112.25-74.721-180.394-74.721v-53c82.301 0 159.676 32.049 217.87 90.245 58.196 58.194 90.246 135.569 90.246 217.87z" fill="#fe6a16"/></g><g><path d="m360.245 152.208c-.214-.214-.435-.421-.65-.634l-37.477 37.477c.215.214.435.42.65.634 48.186 48.185 74.722 112.25 74.722 180.394h53c0-82.301-32.05-159.676-90.245-217.871z" fill="#f24500"/></g></g></svg>