<svg id="Capa_1" enable-background="new 0 0 512 512" height="512" viewBox="0 0 512 512" width="512" xmlns="http://www.w3.org/2000/svg"><g><g><g><g><g><g><g><g><g><circle cx="256" cy="256" fill="#ffce00" r="256"/></g></g></g></g></g></g></g></g><path d="m510.782 281.128-78.477-78.477-10.72 9.413-138.348-138.348-123.502 140.368-15.467 99.9 99.568 99.568-56.981 36.705 61.634 61.634c2.495.072 4.999.108 7.511.108 132.906.001 242.157-101.28 254.782-230.871z" fill="#ffa300"/><g><path d="m325.145 450.258h-138.29l21.005-119.253h96.28z" fill="#555a66"/></g><g><path d="m304.14 331.005h-48.02v119.253h69.025z" fill="#333940"/></g><path d="m241 111.591v10.595l-16.446-15.511-104.578 110.877 21.824 20.584 99.2-105.175v124.747h30v-146.117z" fill="#fff"/><path d="m392.024 217.552-104.578-110.877-16.446 15.511v-10.595h-14.88v146.117h14.88v-124.747l99.2 105.175z" fill="#e9edf5"/><g><path d="m79.695 202.652c13.362 85.348 87.205 150.644 176.305 150.644 89.1 0 162.942-65.295 176.305-150.644z" fill="#707789"/></g><g><path d="m432.305 202.652h-176.185v150.643c89.046-.06 162.829-65.333 176.185-150.643z" fill="#555a66"/></g><g><circle cx="256" cy="95.197" fill="#707789" r="34.697"/></g><g><path d="m290.697 95.197c0-19.122-15.47-34.628-34.576-34.694v69.387c19.106-.065 34.576-15.571 34.576-34.693z" fill="#555a66"/></g></g></svg>