<svg id="Capa_1" enable-background="new 0 0 512 512" height="512" viewBox="0 0 512 512" width="512" xmlns="http://www.w3.org/2000/svg"><g><path d="m228.567 415.131c-4.268 0-7.726-3.459-7.726-7.726v-97.464c0-4.267 3.459-7.726 7.726-7.726 4.268 0 7.726 3.459 7.726 7.726v97.464c.001 4.267-3.458 7.726-7.726 7.726z" fill="#698ed5"/><path d="m391.057 234.572c-4.268 0-7.726-3.459-7.726-7.726v-127.393c0-4.267 3.459-7.726 7.726-7.726s7.726 3.459 7.726 7.726v127.393c.001 4.267-3.458 7.726-7.726 7.726z" fill="#cb5769"/><path d="m103.978 235.037c-4.268 0-7.726-3.459-7.726-7.726v-139.004c0-4.267 3.459-7.726 7.726-7.726s7.726 3.459 7.726 7.726v139.003c0 4.267-3.459 7.727-7.726 7.727z" fill="#ffd064"/><g><path d="m501.285 201.451c14.287 43.869 14.287 87.738 0 131.606-26.44.73-52.879 1.343-79.319 1.838-7.43.139-14.859-9.684-22.289-9.563 8.369-45.354 8.369-70.535 0-115.888 7.43.121 14.859-9.97 22.289-9.831 26.439.495 52.879 1.108 79.319 1.838z" fill="#95d6a4"/><path d="m399.677 229.017c8.369 45.354 20.619 33.989 12.25 79.343-15.288.248-42.827 27.38-58.115 27.549-66.858.737-133.716.719-200.573-.056-47.507-.55-60.178-36.318-107.686-37.632-14.287-43.869-14.287-8.749 0-52.617 47.507-1.314 60.179-46.399 107.686-46.949 66.858-.774 133.716-.793 200.573-.056 15.288.169 30.577 30.171 45.865 30.418z" fill="#9dc6fb"/><path d="m353.812 335.909c12.906-22.995 25.267-45.897 35.763-68.655-10.497-22.757-22.858-45.659-35.763-68.655 22.718.251 45.436.589 68.154 1.014 14.891 22.735 28.244 45.299 38.741 67.641-10.497 22.342-23.85 44.906-38.741 67.641" fill="#dd636e"/><path d="m180.24 267.254c-10.498 22.968-19.938 45.853-27.002 68.604-47.507-.55-95.013-1.482-142.52-2.796-14.29-43.872-14.29-87.744 0-131.616 47.507-1.313 95.013-2.246 142.52-2.796 7.064 22.752 16.504 45.637 27.002 68.604z" fill="#f6e266"/></g><g><path d="m158.49 114.489c-36.344 2.338-72.687 2.338-109.03 0-10.127-.651-18.25-8.539-19.24-18.639-2.465-25.153-2.465-50.305 0-75.458.99-10.1 9.113-17.987 19.24-18.639 36.343-2.338 72.687-2.338 109.03 0 10.127.651 18.25 8.539 19.24 18.638 2.465 25.153 2.465 50.305 0 75.458-.99 10.101-9.113 17.989-19.24 18.64z" fill="#f6e266"/><g fill="#2b4d66"><path d="m145.472 50.817h-82.994c-4.268 0-7.726-3.459-7.726-7.726s3.459-7.726 7.726-7.726h82.994c4.268 0 7.726 3.459 7.726 7.726s-3.459 7.726-7.726 7.726z"/><path d="m110.994 80.879h-48.516c-4.268 0-7.726-3.459-7.726-7.726s3.459-7.726 7.726-7.726h48.516c4.268 0 7.726 3.459 7.726 7.726s-3.458 7.726-7.726 7.726z"/></g></g><g><path d="m430.369 121.647c-26.206 1.686-52.412 1.686-78.618 0-7.302-.47-13.16-6.157-13.873-13.44-1.777-18.137-1.777-36.273 0-54.41.714-7.283 6.571-12.97 13.873-13.44 26.206-1.686 52.412-1.686 78.618 0 7.302.47 13.159 6.157 13.873 13.44 1.777 18.137 1.777 36.273 0 54.41-.713 7.283-6.57 12.97-13.873 13.44z" fill="#dd636e"/><g fill="#2b4d66"><path d="m415.319 73.698h-48.517c-4.268 0-7.726-3.459-7.726-7.726s3.459-7.726 7.726-7.726h48.517c4.268 0 7.726 3.459 7.726 7.726s-3.458 7.726-7.726 7.726z"/><path d="m395.164 103.76h-28.362c-4.268 0-7.726-3.459-7.726-7.726s3.459-7.726 7.726-7.726h28.362c4.268 0 7.726 3.459 7.726 7.726 0 4.266-3.458 7.726-7.726 7.726z"/></g></g><g><path d="m290.032 510.022c-40.976 2.636-81.951 2.636-122.927 0-11.418-.734-20.576-9.627-21.692-21.014-2.779-28.358-2.779-56.717 0-85.075 1.116-11.387 10.274-20.28 21.692-21.014 40.976-2.636 81.951-2.636 122.927 0 11.418.734 20.576 9.627 21.692 21.014 2.779 28.358 2.779 56.717 0 85.075-1.116 11.387-10.274 20.28-21.692 21.014z" fill="#9dc6fb"/><g fill="#2b4d66"><path d="m270.066 454.197h-82.995c-4.268 0-7.726-3.459-7.726-7.726s3.459-7.726 7.726-7.726h82.995c4.268 0 7.726 3.459 7.726 7.726.001 4.266-3.458 7.726-7.726 7.726z"/><path d="m270.066 423.102h-82.995c-4.268 0-7.726-3.459-7.726-7.726s3.459-7.726 7.726-7.726h82.995c4.268 0 7.726 3.459 7.726 7.726.001 4.266-3.458 7.726-7.726 7.726z"/><path d="m235.588 485.292h-48.516c-4.268 0-7.726-3.459-7.726-7.726s3.459-7.726 7.726-7.726h48.516c4.268 0 7.726 3.459 7.726 7.726s-3.459 7.726-7.726 7.726z"/></g></g></g></svg>